<svg xmlns="http://www.w3.org/2000/svg" viewBox="0 0 200 200" fill="#fff" stroke="#222" stroke-width="2.5" stroke-linecap="round" stroke-linejoin="round">
  <!-- body -->
  <ellipse cx="100" cy="140" rx="22" ry="26"/>
  <!-- head -->
  <circle cx="100" cy="90" r="18"/>
  <!-- beak -->
  <polygon points="100,105 94,98 106,98"/>
  <!-- eye -->
  <circle cx="93" cy="88" r="3"/>
  <circle cx="107" cy="88" r="3"/>
  <circle cx="94" cy="88" r="1.5" fill="#222"/>
  <circle cx="108" cy="88" r="1.5" fill="#222"/>
  <!-- wing -->
  <path d="M88,130 Q60,120 55,140 Q52,155 78,150 Q60,135 88,130"/>
  <!-- tail feathers -->
  <path d="M118,150 Q138,155 142,145"/>
  <path d="M120,155 Q140,165 142,158"/>
  <path d="M118,158 Q135,172 138,168"/>
  <!-- legs -->
  <line x1="92" y1="165" x2="90" y2="185"/>
  <line x1="108" y1="165" x2="110" y2="185"/>
  <!-- feet -->
  <path d="M84,185 L90,185 L96,185"/>
  <path d="M104,185 L110,185 L116,185"/>
  <!-- branch -->
  <path d="M55,185 Q100,180 145,185" stroke-width="3"/>
  <!-- leaf -->
  <path d="M145,185 Q155,175 152,185"/>
</svg>
