<svg xmlns="http://www.w3.org/2000/svg" viewBox="0 0 200 200" fill="#fff" stroke="#222" stroke-width="2.5" stroke-linecap="round" stroke-linejoin="round">
  <!-- left wing -->
  <path d="M100,100 Q50,40 40,80 Q30,120 70,130 Q60,100 100,100"/>
  <!-- right wing -->
  <path d="M100,100 Q150,40 160,80 Q170,120 130,130 Q140,100 100,100"/>
  <!-- upper left wing -->
  <path d="M100,100 Q65,55 55,90"/>
  <!-- upper right wing -->
  <path d="M100,100 Q135,55 145,90"/>
  <!-- wing spots -->
  <circle cx="60" cy="95" r="8"/>
  <circle cx="140" cy="95" r="8"/>
  <circle cx="55" cy="72" r="6"/>
  <circle cx="145" cy="72" r="6"/>
  <!-- body -->
  <ellipse cx="100" cy="135" rx="10" ry="28"/>
  <!-- head -->
  <circle cx="100" cy="100" r="8"/>
  <!-- antennae -->
  <line x1="96" y1="92" x2="88" y2="78"/>
  <line x1="104" y1="92" x2="112" y2="78"/>
  <circle cx="88" cy="76" r="3" fill="#222"/>
  <circle cx="112" cy="76" r="3" fill="#222"/>
  <!-- eyes -->
  <circle cx="97" cy="99" r="1.5" fill="#222"/>
  <circle cx="103" cy="99" r="1.5" fill="#222"/>
</svg>
