<svg xmlns="http://www.w3.org/2000/svg" viewBox="0 0 200 200" fill="#fff" stroke="#222" stroke-width="2.5" stroke-linecap="round" stroke-linejoin="round">
  <!-- wrapper -->
  <path d="M65,160 L70,110 L130,110 L135,160 Q130,170 100,170 Q70,170 65,160 Z"/>
  <!-- wrapper ridges -->
  <line x1="70" y1="120" x2="65" y2="160"/>
  <line x1="80" y1="115" x2="78" y2="162"/>
  <line x1="90" y1="111" x2="90" y2="164"/>
  <line x1="100" y1="110" x2="100" y2="165"/>
  <line x1="110" y1="111" x2="110" y2="164"/>
  <line x1="120" y1="115" x2="122" y2="162"/>
  <line x1="130" y1="120" x2="135" y2="160"/>
  <!-- cake base -->
  <rect x="62" y="80" width="76" height="32" rx="4"/>
  <!-- frosting top -->
  <path d="M60,82 Q70,72 80,78 Q90,65 100,72 Q110,65 120,78 Q130,72 140,82"/>
  <!-- frosting drip -->
  <path d="M65,85 Q63,92 65,85"/>
  <path d="M135,85 Q137,92 135,85"/>
  <!-- cherry -->
  <circle cx="100" cy="60" r="9"/>
  <!-- cherry stem -->
  <path d="M100,51 Q102,44 108,40" stroke-width="1.5"/>
  <!-- sprinkles on frosting -->
  <rect x="75" y="68" width="3" height="8" rx="1" transform="rotate(30,75,68)"/>
  <rect x="85" y="64" width="3" height="8" rx="1" transform="rotate(-20,85,64)"/>
  <rect x="105" y="66" width="3" height="8" rx="1" transform="rotate(45,105,66)"/>
  <rect x="115" y="70" width="3" height="8" rx="1" transform="rotate(-15,115,70)"/>
  <rect x="95" y="62" width="3" height="8" rx="1" transform="rotate(10,95,62)"/>
</svg>
