<svg xmlns="http://www.w3.org/2000/svg" viewBox="0 0 200 200" fill="#fff" stroke="#222" stroke-width="2.5" stroke-linecap="round" stroke-linejoin="round">
  <!-- body -->
  <ellipse cx="100" cy="148" rx="48" ry="38"/>
  <!-- head -->
  <circle cx="100" cy="85" r="32"/>
  <!-- floppy ears -->
  <path d="M70,70 Q50,60 48,85 Q46,105 68,100"/>
  <path d="M130,70 Q150,60 152,85 Q154,105 132,100"/>
  <!-- eyes -->
  <circle cx="88" cy="82" r="5"/>
  <circle cx="112" cy="82" r="5"/>
  <circle cx="88" cy="82" r="2.5" fill="#222"/>
  <circle cx="112" cy="82" r="2.5" fill="#222"/>
  <!-- nose -->
  <ellipse cx="100" cy="94" rx="7" ry="5"/>
  <!-- mouth -->
  <path d="M93,99 Q100,107 107,99"/>
  <line x1="100" y1="99" x2="100" y2="107"/>
  <!-- tongue -->
  <path d="M96,107 Q100,114 104,107" stroke-width="2"/>
  <!-- whisker dots -->
  <circle cx="82" cy="97" r="1.5" fill="#222"/>
  <circle cx="75" cy="95" r="1.5" fill="#222"/>
  <circle cx="118" cy="97" r="1.5" fill="#222"/>
  <circle cx="125" cy="95" r="1.5" fill="#222"/>
  <!-- legs -->
  <rect x="68" y="170" width="16" height="22" rx="6"/>
  <rect x="88" y="172" width="16" height="20" rx="6"/>
  <rect x="96" y="172" width="16" height="20" rx="6"/>
  <rect x="116" y="170" width="16" height="22" rx="6"/>
  <!-- tail -->
  <path d="M148,140 Q168,120 162,105 Q158,96 152,108"/>
  <!-- collar -->
  <path d="M72,112 Q100,120 128,112" stroke-width="3"/>
  <circle cx="100" cy="118" r="4"/>
</svg>
