<svg xmlns="http://www.w3.org/2000/svg" viewBox="0 0 200 200" fill="#fff" stroke="#222" stroke-width="2.5" stroke-linecap="round" stroke-linejoin="round">
  <!-- mane -->
  <path d="M100,40 Q70,45 55,70 Q45,90 50,105 Q40,85 55,65 Q60,50 100,40"/>
  <path d="M85,38 Q65,50 50,80"/>
  <path d="M115,38 Q135,50 150,80"/>
  <path d="M130,40 Q160,65 150,105 Q155,85 145,70 Q140,50 130,40"/>
  <!-- face -->
  <ellipse cx="100" cy="105" rx="42" ry="38"/>
  <!-- eyes -->
  <circle cx="85" cy="98" r="6"/>
  <circle cx="115" cy="98" r="6"/>
  <circle cx="85" cy="98" r="3" fill="#222"/>
  <circle cx="115" cy="98" r="3" fill="#222"/>
  <!-- nose -->
  <polygon points="100,110 94,116 106,116"/>
  <!-- mouth -->
  <path d="M94,116 Q100,122 100,116"/>
  <path d="M106,116 Q100,122 100,116"/>
  <line x1="100" y1="116" x2="100" y2="122"/>
  <!-- whisker dots -->
  <circle cx="70" cy="112" r="2" fill="#222"/>
  <circle cx="65" cy="116" r="2" fill="#222"/>
  <circle cx="130" cy="112" r="2" fill="#222"/>
  <circle cx="135" cy="116" r="2" fill="#222"/>
  <!-- ears -->
  <circle cx="78" cy="72" r="8"/>
  <circle cx="122" cy="72" r="8"/>
</svg>
