<svg xmlns="http://www.w3.org/2000/svg" viewBox="0 0 200 200" fill="#fff" stroke="#222" stroke-width="2.5" stroke-linecap="round" stroke-linejoin="round">
  <!-- stem -->
  <rect x="93" y="110" width="14" height="50" rx="4"/>
  <!-- cap -->
  <path d="M60,115 Q100,55 140,115"/>
  <!-- spots -->
  <circle cx="80" cy="100" r="6"/>
  <circle cx="110" cy="90" r="5"/>
  <circle cx="100" cy="105" r="4"/>
  <circle cx="125" cy="103" r="4"/>
  <circle cx="70" cy="92" r="3"/>
  <!-- fairy door -->
  <path d="M88,155 Q100,145 112,155 L112,170 L88,170 Z"/>
  <line x1="100" y1="150" x2="100" y2="170"/>
  <circle cx="98" cy="159" r="2" fill="#222"/>
  <!-- window -->
  <rect x="92" y="148" width="6" height="6" rx="1"/>
  <line x1="95" y1="148" x2="95" y2="154"/>
  <line x1="92" y1="151" x2="98" y2="151"/>
  <!-- grass -->
  <path d="M55,160 Q50,155 45,160"/>
  <path d="M145,160 Q150,155 155,160"/>
  <!-- ground -->
  <line x1="30" y1="160" x2="170" y2="160"/>
</svg>
