<svg xmlns="http://www.w3.org/2000/svg" viewBox="0 0 200 200" fill="#fff" stroke="#222" stroke-width="2.5" stroke-linecap="round" stroke-linejoin="round">
  <!-- crust -->
  <path d="M50,170 Q100,185 150,170 L155,140 Q100,155 45,140 Z"/>
  <!-- sauce layer -->
  <path d="M50,170 L45,140 Q100,150 155,140 L150,170 Q100,180 50,170 Z"/>
  <!-- cheese drips -->
  <path d="M70,145 Q68,158 70,145"/>
  <path d="M110,147 Q112,160 110,147"/>
  <!-- pepperoni -->
  <circle cx="80" cy="120" r="12"/>
  <circle cx="130" cy="115" r="12"/>
  <circle cx="105" cy="95" r="12"/>
  <!-- pepperoni spots -->
  <circle cx="77" cy="117" r="2" fill="#222"/>
  <circle cx="83" cy="123" r="2" fill="#222"/>
  <circle cx="127" cy="112" r="2" fill="#222"/>
  <circle cx="133" cy="118" r="2" fill="#222"/>
  <circle cx="102" cy="92" r="2" fill="#222"/>
  <circle cx="108" cy="98" r="2" fill="#222"/>
  <!-- olive -->
  <circle cx="100" cy="130" r="6"/>
  <circle cx="100" cy="130" r="3" stroke-width="1"/>
  <!-- mushroom -->
  <path d="M70,100 Q75,90 80,100" stroke-width="2"/>
  <path d="M125,130 Q135,120 140,130" stroke-width="2"/>
  <!-- green pepper -->
  <rect x="60" y="130" width="10" height="8" rx="2" transform="rotate(15,60,130)"/>
</svg>
