<svg xmlns="http://www.w3.org/2000/svg" viewBox="0 0 200 200" fill="#fff" stroke="#222" stroke-width="2.5" stroke-linecap="round" stroke-linejoin="round">
  <!-- planet body -->
  <circle cx="100" cy="100" r="50"/>
  <!-- rings -->
  <ellipse cx="100" cy="100" rx="75" ry="18" transform="rotate(-20,100,100)"/>
  <ellipse cx="100" cy="100" rx="70" ry="15" transform="rotate(-20,100,100)" stroke-width="1.5"/>
  <ellipse cx="100" cy="100" rx="80" ry="21" transform="rotate(-20,100,100)" stroke-width="2"/>
  <!-- ring gap outline -->
  <path d="M32,75 Q65,95 100,100" stroke-width="2"/>
  <path d="M168,125 Q135,105 100,100" stroke-width="2"/>
  <!-- planet stripe -->
  <path d="M52,80 Q100,70 148,80"/>
  <path d="M55,120 Q100,130 145,120" stroke-width="1.5"/>
  <!-- small stars -->
  <path d="M25,30 L27,25 L29,30 L34,30 L30,34 L32,39 L27,36 L22,39 L24,34 L20,30 Z" stroke-width="1"/>
  <path d="M175,45 L177,40 L179,45 L184,45 L180,49 L182,54 L177,51 L172,54 L174,49 L170,45 Z" stroke-width="1"/>
  <circle cx="170" cy="25" r="2" fill="#222"/>
  <circle cx="40" cy="55" r="2" fill="#222"/>
  <circle cx="30" cy="160" r="2" fill="#222"/>
  <circle cx="175" cy="170" r="2" fill="#222"/>
</svg>
