<svg xmlns="http://www.w3.org/2000/svg" viewBox="0 0 200 200" fill="#fff" stroke="#222" stroke-width="2.5" stroke-linecap="round" stroke-linejoin="round">
  <!-- rainbow bands -->
  <path d="M20,130 Q65,50 100,40 Q135,50 180,130"/>
  <path d="M25,135 Q68,60 100,50 Q132,60 175,135" stroke-width="2"/>
  <path d="M30,140 Q71,70 100,60 Q129,70 170,140" stroke-width="2"/>
  <path d="M35,145 Q74,80 100,70 Q126,80 165,145" stroke-width="2"/>
  <path d="M40,150 Q77,90 100,80 Q123,90 160,150" stroke-width="2"/>
  <!-- left cloud -->
  <circle cx="35" cy="120" r="18"/>
  <circle cx="20" cy="115" r="14"/>
  <circle cx="20" cy="128" r="12"/>
  <!-- right cloud -->
  <circle cx="165" cy="120" r="18"/>
  <circle cx="180" cy="115" r="14"/>
  <circle cx="180" cy="128" r="12"/>
  <!-- sun -->
  <circle cx="100" cy="38" r="16" fill="#fff"/>
  <!-- sun rays -->
  <line x1="100" y1="18" x2="100" y2="10" stroke-width="2"/>
  <line x1="100" y1="58" x2="100" y2="66" stroke-width="2"/>
  <line x1="80" y1="38" x2="72" y2="38" stroke-width="2"/>
  <line x1="120" y1="38" x2="128" y2="38" stroke-width="2"/>
  <line x1="86" y1="24" x2="80" y2="18" stroke-width="2"/>
  <line x1="114" y1="24" x2="120" y2="18" stroke-width="2"/>
  <line x1="86" y1="52" x2="80" y2="58" stroke-width="2"/>
  <line x1="114" y1="52" x2="120" y2="58" stroke-width="2"/>
</svg>
