<svg xmlns="http://www.w3.org/2000/svg" viewBox="0 0 200 200" fill="#fff" stroke="#222" stroke-width="2.5" stroke-linecap="round" stroke-linejoin="round">
  <!-- trunk -->
  <rect x="92" y="120" width="16" height="70" rx="4"/>
  <!-- canopy -->
  <circle cx="100" cy="80" r="55"/>
  <!-- inner canopy detail -->
  <path d="M60,80 Q80,50 100,45 Q120,50 140,80" stroke-width="1.5" fill="none"/>
  <path d="M65,95 Q85,65 100,60 Q115,65 135,95" stroke-width="1.5" fill="none"/>
  <!-- roots -->
  <path d="M92,190 Q80,195 72,195"/>
  <path d="M108,190 Q120,195 128,195"/>
  <!-- ground -->
  <line x1="30" y1="190" x2="170" y2="190" stroke-width="3"/>
  <!-- grass -->
  <path d="M40,190 Q42,182 45,190"/>
  <path d="M155,190 Q157,182 160,190"/>
  <!-- apple -->
  <circle cx="125" cy="72" r="8"/>
  <path d="M125,64 Q128,60 125,58" stroke-width="1.5" fill="none"/>
</svg>
